pedal_clip_forces_x_-0.09_y_-0.04.mot
version=1
nRows=149
nColumns=4
inDegrees=yes
endheader
time	PedalClip_calcn_r_Fx	PedalClip_calcn_r_Fy	PedalClip_calcn_r_Fz
0	12.213997241326	14.2239916221296	0
0.001	12.1613776206176	14.4896275286206	0
0.0026939	12.1079843410942	14.7518224438267	0
0.00312094	12.0538163145144	15.0105775533264	0
0.0040771	11.9988731078858	15.2658948236257	0
0.00607348	11.9431544021256	15.5177770257028	0
0.00627312	11.8866598496424	15.7662269750442	0
0.00647276	11.8293890743195	16.0112475502135	0
0.00677463	11.7713416716119	16.252841753675	0
0.00807496	11.7125171287694	16.4910127169763	0
0.00920107	11.6529145936297	16.7257636466151	0
0.01023557	11.5925330226263	16.9570976516679	0
0.01163625	11.5313709506022	17.185017883989	0
0.01303692	11.469426834468	17.4095274636888	0
0.01397125	11.4066991685674	17.6306296227188	0
0.01511473	11.3431864899608	17.8483277600377	0
0.01624473	11.2788874021153	18.0626254261509	0
0.0172513	11.2138006355517	18.2735262771555	0
0.01861328	11.1479250743552	18.4810342159235	0
0.01997527	11.0812599746761	18.6851533248354	0
0.02094793	11.0138047704064	18.8858878863231	0
0.02212332	10.9455590679452	19.0832425264074	0
0.02318097	10.8765226641542	19.2772226152833	0
0.02449511	10.8066957538512	19.4678339746683	0
0.02462653	10.7360787424198	19.6550828116103	0
0.02484302	10.6646721856357	19.8389756818836	0
0.02592549	10.5924768482697	20.0195194804216	0
0.02700797	10.5194938731944	20.1967214426353	0
0.02797128	10.4457246512582	20.3705891409946	0
0.02938143	10.3711706974709	20.5411303964666	0
0.02952245	10.2958334934559	20.7083529982025	0
0.02983732	10.2197147480599	20.872264852947	0
0.03094951	10.1428165381326	21.0328739890428	0
0.03214191	10.0651408567026	21.1901882252114	0
0.03290874	9.98668988277539	21.344214249591	0
0.03390386	9.90746638787495	21.4949576458361	0
0.03441648	9.82747349784504	21.6424218649363	0
0.03608362	9.7467146352931	21.7866081964268	0
0.03614947	9.66519329364893	21.9275150563744	0
0.03621531	9.58291299385197	22.0651366201894	0
0.03654456	9.49987715615374	22.1994609359775	0
0.03708181	9.41608878392423	22.3304664961909	0
0.03759707	9.33154969473719	22.4581154156408	0
0.03923749	9.24625925863746	22.5823441003423	0
0.03949578	9.16021310874721	22.7030506877661	0
0.04005391	9.07340181275899	22.8200794078233	0
0.04156178	8.98580923876762	22.9332092578607	0
0.04185276	8.89741268200464	23.0421753541191	0
0.04287391	8.80818745258982	23.146789017408	0
0.04297602	8.7181134428087	23.2471855490554	0
0.04314079	8.62568744482788	23.3402842993687	0
0.04382666	8.53235494875895	23.4298718214555	0
0.04426038	8.43817891815819	23.5161781999115	0
0.04507444	8.34321090175652	23.599505560074	0
0.04573686	8.24747893958197	23.6800613553277	0
0.04639928	8.15102945560861	23.7579770703974	0
0.04731152	8.05392182481942	23.8334631485355	0
0.04812484	7.95621665177606	23.9068080218279	0
0.04862934	7.85796889276302	23.9783469381697	0
0.04910558	7.75921543302107	24.0483299510158	0
0.04996639	7.65995221659235	24.1168347616381	0
0.05104539	7.56015021749383	24.1838991640644	0
0.05117515	7.45981298453823	24.2494625053513	0
0.05174028	7.35896865431938	24.3135695958362	0
0.05208926	7.25765492463146	24.3763260458518	0
0.05255745	7.15591071928162	24.4378636126871	0
0.05331684	7.05376885743129	24.4983500206502	0
0.05424222	6.95124768038349	24.5580141632723	0
0.05433476	6.84833742455977	24.6170954592997	0
0.0544273	6.74504244496783	24.6757581105408	0
0.05488999	6.6413948160969	24.7340110784419	0
0.05511902	6.53744385138011	24.7917348710802	0
0.05550758	6.43324600087849	24.8488350712641	0
0.05660827	6.32888392307105	24.9052381178671	0
0.05671834	6.22444024265121	24.9610201688441	0
0.05685423	6.11997173182659	25.016293159303	0
0.05753369	6.01551888208546	25.0711392692682	0
0.05773316	5.9111355361238	25.1256294022196	0
0.05840387	5.80685512445085	25.1798421844618	0
0.05897998	5.70271228893411	25.2338829216335	0
0.05918055	5.59871509872447	25.2878749648692	0
0.05952888	5.49483595067686	25.3419297688023	0
0.05969472	5.39107258839694	25.3961182993542	0
0.06016807	5.28744351797735	25.4504741806833	0
0.06076919	5.18394610377579	25.505068314684	0
0.06129348	5.08055319452253	25.5599738641985	0
0.06134591	4.97720100566728	25.6152954761239	0
0.06147064	4.87383652051793	25.6711115656734	0
0.06171401	4.77044864683975	25.7274226781982	0
0.06269596	4.667040546786	25.7841319381513	0
0.06281977	4.56360871983464	25.8411324837199	0
0.06305249	4.46013028641608	25.8983504140031	0
0.06399839	4.35657191045911	25.9557426999432	0
0.06409298	4.2528998823852	26.013283884695	0
0.06439845	4.14908000660396	26.0709683263711	0
0.06500474	4.04507905723522	26.1287974651621	0
0.06542934	3.94086062508173	26.1867770092899	0
0.06605029	3.83638968775725	26.2449133048723	0
0.06638671	3.73164810354111	26.3032020930163	0
0.06696236	3.62662830529542	26.3616263609116	0
0.06760809	3.52130989571008	26.4201522756695	0
0.06767266	3.41566422867682	26.4787409677543	0
0.06791807	3.3096713764534	26.5373636046157	0
0.0685994	3.20332651118227	26.5960018533592	0
0.06886788	3.09662982745974	26.654644341463	0
0.06964858	2.98957593745669	26.7132796886393	0
0.07014351	2.88212774559545	26.7719026363095	0
0.070193	2.77420865473546	26.8305212524724	0
0.07031084	2.66574528076617	26.8891372340084	0
0.07052959	2.5567124970638	26.9477548217723	0
0.07140401	2.44714326761092	27.006369589624	0
0.07152148	2.33710410234187	27.0649616335054	0
0.07179852	2.22661079917101	27.1235115632764	0
0.07239017	2.11563157337129	27.1820087852909	0
0.07292737	2.00413913285708	27.2404589686065	0
0.07341271	1.89218588914176	27.2988734349094	0
0.07346126	1.77989615576872	27.3572497028477	0
0.07361577	1.66741803055382	27.4155597304472	0
0.0740615	1.55485135401182	27.4737619442646	0
0.07428528	1.44226656191443	27.5318032294498	0
0.07462932	1.32973275874252	27.5896453354638	0
0.07513015	1.21733037586167	27.6472969548468	0
0.07518058	1.10515075100167	27.7047870589003	0
0.07533492	0.99328594541979	27.7621370074538	0
0.07580277	0.881814722137652	27.8193363548968	0
0.07604013	0.770792545634766	27.8763619500419	0
0.0764296	0.660254862141999	27.9332123605096	0
0.07688649	0.550210685723495	27.9899361010904	0
0.07693218	0.440655393331627	28.0465945779453	0
0.07708575	0.331585714244736	28.1032353643551	0
0.07748643	0.222993713580867	28.1598709253227	0
0.07763262	0.114844766634363	28.2164900691429	0
0.07794072	0.00707807565187996	28.2730871941375	0
0.07844172	-0.100368686888676	28.3296808127967	0
0.07849182	-0.207541771283799	28.3863048602317	0
0.07864341	-0.314457376860622	28.4429974916384	0
0.07908774	-0.42110499218856	28.4997960083297	0
0.07931106	-0.527456088034225	28.5567367460999	0
0.07967055	-0.633474750305789	28.613854119614	0
0.08011353	-0.739129057506809	28.6711900816675	0
0.08015782	-0.844407287893105	28.7288040381685	0
0.0803109	-0.949312048174412	28.7867462489539	0
0.08069683	-1.05381962538863	28.8450629439261	0
0.08083272	-1.15787453476331	28.903804571218	0
0.08113296	-1.26142691424999	28.9629987843178	0
0.08160389	-1.36445882345085	29.0226428286721	0
0.08165099	-1.46698846677855	29.0827260702352	0
0.081802	-1.56904897153568	29.1432276382444	0
0.08221697	-1.67068132546781	29.2041352871576	0
